<svg width="auto" height="138" viewBox="0 0 127 210" fill="none" xmlns="http://www.w3.org/2000/svg">
<g id="1" filter="url(#filter0_bddd_24718_1257)">
<path d="M70.9963 54.7918C70.9963 55.3432 70.7274 55.86 70.2758 56.1764L59.7382 63.5596C53.1108 68.203 44 63.462 44 55.3697V51.948C44 48.6412 45.6347 45.5483 48.367 43.6855L74.6932 25.7375C76.3536 24.6055 78.3166 24 80.3262 24H89C94.5229 24 99 28.4772 99 34V152C99 157.523 94.5229 162 89 162H80.9963C75.4735 162 70.9963 157.523 70.9963 152V54.7918Z" fill="url(#paint0_linear_24718_1257)"/>
<path d="M71.9963 54.7918C71.9963 54.2395 71.5486 53.7918 70.9963 53.7918C70.4441 53.7918 69.9963 54.2395 69.9963 54.7918C69.9963 55.017 69.8865 55.2281 69.702 55.3574L59.1644 62.7406C53.1997 66.9197 45 62.6527 45 55.3697V51.948C45 48.9719 46.4713 46.1882 48.9303 44.5118L75.2565 26.5637C76.7509 25.5449 78.5176 25 80.3262 25H89C93.9706 25 98 29.0294 98 34V152C98 156.971 93.9706 161 89 161H80.9963C76.0258 161 71.9963 156.971 71.9963 152V54.7918Z" stroke="url(#paint1_linear_24718_1257)" stroke-opacity="0.5" stroke-width="2" stroke-linejoin="round"/>
</g>
<defs>
<filter id="filter0_bddd_24718_1257" x="0" y="-6" width="129" height="216" filterUnits="userSpaceOnUse" color-interpolation-filters="sRGB">
<feFlood flood-opacity="0" result="BackgroundImageFix"/>
<feGaussianBlur in="BackgroundImageFix" stdDeviation="15"/>
<feComposite in2="SourceAlpha" operator="in" result="effect1_backgroundBlur_24718_1257"/>
<feColorMatrix in="SourceAlpha" type="matrix" values="0 0 0 0 0 0 0 0 0 0 0 0 0 0 0 0 0 0 127 0" result="hardAlpha"/>
<feOffset dx="-8" dy="12"/>
<feGaussianBlur stdDeviation="18"/>
<feComposite in2="hardAlpha" operator="out"/>
<feColorMatrix type="matrix" values="0 0 0 0 0 0 0 0 0 0 0 0 0 0 0 0 0 0 0.06 0"/>
<feBlend mode="multiply" in2="effect1_backgroundBlur_24718_1257" result="effect2_dropShadow_24718_1257"/>
<feColorMatrix in="SourceAlpha" type="matrix" values="0 0 0 0 0 0 0 0 0 0 0 0 0 0 0 0 0 0 127 0" result="hardAlpha"/>
<feOffset dx="-8" dy="10"/>
<feGaussianBlur stdDeviation="2"/>
<feComposite in2="hardAlpha" operator="out"/>
<feColorMatrix type="matrix" values="0 0 0 0 0 0 0 0 0 0 0 0 0 0 0 0 0 0 0.01 0"/>
<feBlend mode="multiply" in2="effect2_dropShadow_24718_1257" result="effect3_dropShadow_24718_1257"/>
<feColorMatrix in="SourceAlpha" type="matrix" values="0 0 0 0 0 0 0 0 0 0 0 0 0 0 0 0 0 0 127 0" result="hardAlpha"/>
<feOffset dx="-9" dy="10.5"/>
<feGaussianBlur stdDeviation="16"/>
<feComposite in2="hardAlpha" operator="out"/>
<feColorMatrix type="matrix" values="0 0 0 0 0.313726 0 0 0 0 0.345098 0 0 0 0 0.380392 0 0 0 1 0"/>
<feBlend mode="overlay" in2="effect3_dropShadow_24718_1257" result="effect4_dropShadow_24718_1257"/>
<feBlend mode="normal" in="SourceGraphic" in2="effect4_dropShadow_24718_1257" result="shape"/>
</filter>
<linearGradient id="paint0_linear_24718_1257" x1="88.5" y1="160" x2="92.4728" y2="33.6249" gradientUnits="userSpaceOnUse">
<stop/>
<stop offset="0.195" stop-color="#117B36"/>
<stop offset="0.4" stop-color="#00D15F"/>
<stop offset="0.644791" stop-color="#32F26F"/>
<stop offset="1" stop-color="#9CFFA3"/>
</linearGradient>
<linearGradient id="paint1_linear_24718_1257" x1="41.9332" y1="-0.292134" x2="38.9225" y2="150.112" gradientUnits="userSpaceOnUse">
<stop stop-color="white"/>
<stop offset="1" stop-color="white" stop-opacity="0"/>
</linearGradient>
</defs>
</svg>
