<svg width="auto" height="138" viewBox="0 0 173 210" fill="none" xmlns="http://www.w3.org/2000/svg">
<g id="3" filter="url(#filter0_bddd_24718_1262)">
<path d="M95.3 162C85.5667 162 76.8333 160.301 69.1 156.903C61.3667 153.506 55.1667 148.736 50.5 142.594C47.9808 139.208 46.0445 135.555 44.691 131.636C42.7825 126.11 47.5104 121.031 53.3566 121.031H64.2784C68.8735 121.031 72.6703 124.343 75.2474 128.147C76.4987 129.994 78.0495 131.673 79.9 133.185C83.9 136.452 89.0333 138.085 95.3 138.085C101.967 138.085 107.3 136.452 111.3 133.185C115.433 129.918 117.5 125.605 117.5 120.247C117.5 115.02 115.167 110.969 110.5 108.094C105.833 105.219 99.0333 103.781 90.1 103.781H88.3C82.7772 103.781 78.3 99.3041 78.3 93.7812V89.8665C78.3 84.3436 82.7772 79.8665 88.3 79.8665H88.5C96.9 79.8665 103.1 78.4943 107.1 75.75C111.233 72.875 113.3 68.9545 113.3 63.9886C113.3 59.1534 111.567 55.2983 108.1 52.4233C104.633 49.4176 100.167 47.9148 94.7 47.9148C89.1 47.9148 84.5667 49.4829 81.1 52.6193C79.8954 53.7091 78.8679 54.9015 78.0175 56.1965C75.2187 60.4582 71.2409 64.5767 66.1424 64.5767H57.3724C51.5939 64.5767 46.9609 59.6187 48.8302 54.1508C49.7599 51.4312 50.9832 48.6991 52.5 45.9545C55.9667 39.6818 61.2333 34.4545 68.3 30.2727C75.5 26.0909 84.3 24 94.7 24C103.633 24 111.5 25.5682 118.3 28.7045C125.233 31.7102 130.633 36.0227 134.5 41.642C138.367 47.1307 140.3 53.3381 140.3 60.2642C140.3 68.3665 137.9 75.0966 133.1 80.4545C128.483 85.6267 123.408 89.0717 117.877 90.7894C117.772 90.8221 117.7 90.9189 117.7 91.0289C117.7 91.1489 117.786 91.2518 117.903 91.2748C124.755 92.6106 130.887 96.0607 136.3 101.625C141.767 107.114 144.5 114.497 144.5 123.776C144.5 131.224 142.3 137.889 137.9 143.77C133.633 149.52 127.767 154.028 120.3 157.295C112.833 160.432 104.5 162 95.3 162Z" fill="url(#paint0_linear_24718_1262)"/>
<path d="M107.666 76.5746L107.671 76.5709C112.069 73.5121 114.3 69.2873 114.3 63.9886C114.3 58.8847 112.456 54.7403 108.747 51.6606C105.066 48.473 100.355 46.9148 94.7 46.9148C88.9038 46.9148 84.1147 48.5433 80.4291 51.8778C79.1646 53.0218 78.0808 54.2783 77.1816 55.6476C74.4018 59.8804 70.6854 63.5767 66.1424 63.5767H57.3724C54.765 63.5767 52.4433 62.4573 50.9929 60.7637C49.5562 59.0862 48.9659 56.8453 49.7764 54.4743C50.6856 51.8148 51.8842 49.1362 53.3752 46.4382C56.7432 40.3441 61.8715 35.2395 68.8058 31.1354C75.819 27.0631 84.4347 25 94.7 25C103.516 25 111.235 26.5474 117.881 29.6126L117.902 29.622C124.683 32.5614 129.927 36.7605 133.676 42.2089L133.676 42.2089L133.682 42.218C137.426 47.5324 139.3 53.5373 139.3 60.2642C139.3 68.1536 136.97 74.6362 132.355 79.7873L132.354 79.7886C127.833 84.8522 122.907 88.1802 117.58 89.8344C117.06 89.9959 116.7 90.4772 116.7 91.0289C116.7 91.6321 117.129 92.1427 117.712 92.2563C124.341 93.5488 130.296 96.887 135.583 102.322L135.583 102.322L135.591 102.331C140.835 107.596 143.5 114.706 143.5 123.776C143.5 131.012 141.368 137.466 137.099 143.171L137.097 143.174C132.949 148.764 127.232 153.17 119.906 156.376C112.579 159.453 104.382 161 95.3 161C85.6842 161 77.0909 159.322 69.5023 155.988C61.911 152.653 55.8531 147.985 51.2991 141.993C48.8417 138.688 46.9551 135.128 45.6362 131.309C44.8086 128.913 45.4097 126.628 46.8762 124.911C48.3559 123.178 50.719 122.031 53.3566 122.031H64.2784C68.3733 122.031 71.9082 125.001 74.4195 128.708C75.7289 130.641 77.3471 132.391 79.2674 133.959C83.4818 137.401 88.8537 139.085 95.3 139.085C102.126 139.085 107.702 137.412 111.926 133.964C116.3 130.504 118.5 125.902 118.5 120.247C118.5 114.653 115.969 110.289 111.025 107.242C106.13 104.227 99.1135 102.781 90.1 102.781H88.3C83.3294 102.781 79.3 98.7518 79.3 93.7812V89.8665C79.3 84.8959 83.3294 80.8665 88.3 80.8665H88.5C96.971 80.8665 103.417 79.4898 107.666 76.5746Z" stroke="url(#paint1_linear_24718_1262)" stroke-opacity="0.5" stroke-width="2" stroke-linejoin="round"/>
</g>
<defs>
<filter id="filter0_bddd_24718_1262" x="0.261261" y="-6" width="174.239" height="216" filterUnits="userSpaceOnUse" color-interpolation-filters="sRGB">
<feFlood flood-opacity="0" result="BackgroundImageFix"/>
<feGaussianBlur in="BackgroundImageFix" stdDeviation="15"/>
<feComposite in2="SourceAlpha" operator="in" result="effect1_backgroundBlur_24718_1262"/>
<feColorMatrix in="SourceAlpha" type="matrix" values="0 0 0 0 0 0 0 0 0 0 0 0 0 0 0 0 0 0 127 0" result="hardAlpha"/>
<feOffset dx="-8" dy="12"/>
<feGaussianBlur stdDeviation="18"/>
<feComposite in2="hardAlpha" operator="out"/>
<feColorMatrix type="matrix" values="0 0 0 0 0 0 0 0 0 0 0 0 0 0 0 0 0 0 0.06 0"/>
<feBlend mode="multiply" in2="effect1_backgroundBlur_24718_1262" result="effect2_dropShadow_24718_1262"/>
<feColorMatrix in="SourceAlpha" type="matrix" values="0 0 0 0 0 0 0 0 0 0 0 0 0 0 0 0 0 0 127 0" result="hardAlpha"/>
<feOffset dx="-8" dy="10"/>
<feGaussianBlur stdDeviation="2"/>
<feComposite in2="hardAlpha" operator="out"/>
<feColorMatrix type="matrix" values="0 0 0 0 0 0 0 0 0 0 0 0 0 0 0 0 0 0 0.01 0"/>
<feBlend mode="multiply" in2="effect2_dropShadow_24718_1262" result="effect3_dropShadow_24718_1262"/>
<feColorMatrix in="SourceAlpha" type="matrix" values="0 0 0 0 0 0 0 0 0 0 0 0 0 0 0 0 0 0 127 0" result="hardAlpha"/>
<feOffset dx="-9" dy="10.5"/>
<feGaussianBlur stdDeviation="16"/>
<feComposite in2="hardAlpha" operator="out"/>
<feColorMatrix type="matrix" values="0 0 0 0 0.313726 0 0 0 0 0.345098 0 0 0 0 0.380392 0 0 0 1 0"/>
<feBlend mode="overlay" in2="effect3_dropShadow_24718_1262" result="effect4_dropShadow_24718_1262"/>
<feBlend mode="normal" in="SourceGraphic" in2="effect4_dropShadow_24718_1262" result="shape"/>
</filter>
<linearGradient id="paint0_linear_24718_1262" x1="125.027" y1="160" x2="127.171" y2="33.5363" gradientUnits="userSpaceOnUse">
<stop/>
<stop offset="0.140933" stop-color="#117B36"/>
<stop offset="0.342708" stop-color="#00D15F"/>
<stop offset="0.644791" stop-color="#32F26F"/>
<stop offset="1" stop-color="#9CFFA3"/>
</linearGradient>
<linearGradient id="paint1_linear_24718_1262" x1="38.667" y1="-0.292134" x2="37.0432" y2="150.154" gradientUnits="userSpaceOnUse">
<stop stop-color="white"/>
<stop offset="1" stop-color="white" stop-opacity="0"/>
</linearGradient>
</defs>
</svg>
