<svg width="auto" height="138" viewBox="0 0 188 210" fill="none" xmlns="http://www.w3.org/2000/svg">
<g id="4" filter="url(#filter0_bddd_24718_1264)">
<path d="M111.3 54.9933C111.3 54.8626 111.194 54.7566 111.063 54.7566C110.965 54.7566 110.877 54.8174 110.841 54.9089C110.175 56.6157 109.195 58.386 107.9 60.2199L79.9 102.308C78.3 104.736 76.9 106.692 75.7 108.176C74.6471 109.641 73.5942 110.908 72.5413 111.979C72.5148 112.006 72.5 112.042 72.5 112.079C72.5 112.159 72.5642 112.223 72.6434 112.223H111.3C111.3 112.223 131.127 112.223 149.7 112.223C155.223 112.223 159.7 116.7 159.7 122.223V127.111C159.7 132.634 155.223 137.111 149.7 137.111H54.3C48.7772 137.111 44.3 132.634 44.3 127.111V118.489C44.3 116.514 44.8848 114.584 45.9806 112.941L102.331 28.4513C104.186 25.6703 107.308 24 110.651 24H129.1C134.623 24 139.1 28.4772 139.1 34V152C139.1 157.523 134.623 162 129.1 162H121.3C115.777 162 111.3 157.523 111.3 152V54.9933Z" fill="url(#paint0_linear_24718_1264)"/>
<path d="M107.083 59.6432C107.078 59.6507 107.073 59.6584 107.067 59.666L79.0674 101.754L79.065 101.758C77.4746 104.171 76.0944 106.098 74.9224 107.547C74.9105 107.562 74.8991 107.577 74.888 107.592C73.8593 109.023 72.839 110.25 71.8284 111.277C71.6183 111.491 71.5 111.779 71.5 112.079C71.5 112.711 72.0119 113.223 72.6434 113.223H110.3V136.111H54.3C49.3294 136.111 45.3 132.082 45.3 127.111V118.489C45.3 116.712 45.8263 114.974 46.8125 113.495L103.163 29.0062C104.832 26.5033 107.642 25 110.651 25H129.1C134.071 25 138.1 29.0294 138.1 34V111.223H138.084H137.977H137.871H137.765H137.658H137.552H137.446H137.34H137.234H137.128H137.022H136.917H136.811H136.706H136.6H136.495H136.39H136.284H136.179H136.074H135.969H135.865H135.76H135.655H135.551H135.446H135.342H135.238H135.133H135.029H134.925H134.821H134.718H134.614H134.511H134.407H134.304H134.2H134.097H133.994H133.891H133.789H133.686H133.583H133.481H133.378H133.276H133.174H133.072H132.97H132.868H132.767H132.665H132.564H132.462H132.361H132.26H132.159H132.059H131.958H131.857H131.757H131.657H131.556H131.456H131.357H131.257H131.157H131.058H130.958H130.859H130.76H130.661H130.562H130.464H130.365H130.267H130.169H130.07H129.973H129.875H129.777H129.68H129.582H129.485H129.388H129.291H129.194H129.098H129.001H128.905H128.809H128.713H128.617H128.522H128.426H128.331H128.236H128.141H128.046H127.951H127.857H127.762H127.668H127.574H127.48H127.387H127.293H127.2H127.107H127.014H126.921H126.829H126.736H126.644H126.552H126.46H126.368H126.277H126.185H126.094H126.003H125.912H125.822H125.731H125.641H125.551H125.461H125.372H125.282H125.193H125.104H125.015H124.926H124.838H124.75H124.662H124.574H124.486H124.399H124.311H124.224H124.137H124.051H123.964H123.878H123.792H123.706H123.621H123.535H123.45H123.365H123.28H123.196H123.111H123.027H122.943H122.86H122.776H122.693H122.61H122.527H122.445H122.362H122.28H122.198H122.117H122.035H121.954H121.873H121.792H121.712H121.631H121.551H121.472H121.392H121.313H121.234H121.155H121.076H120.998H120.92H120.842H120.764H120.687H120.61H120.533H120.456H120.38H120.303H120.228H120.152H120.076H120.001H119.926H119.852H119.777H119.703H119.629H119.556H119.482H119.409H119.336H119.264H119.192H119.12H119.048H118.976H118.905H118.834H118.763H118.693H118.623H118.553H118.483H118.414H118.345H118.276H118.207H118.139H118.071H118.004H117.936H117.869H117.802H117.736H117.669H117.603H117.538H117.472H117.407H117.342H117.278H117.213H117.149H117.086H117.022H116.959H116.897H116.834H116.772H116.71H116.648H116.587H116.526H116.465H116.405H116.345H116.285H116.226H116.166H116.108H116.049H115.991H115.933H115.875H115.818H115.761H115.704H115.648H115.592H115.536H115.481H115.426H115.371H115.316H115.262H115.208H115.155H115.102H115.049H114.996H114.944H114.892H114.841H114.79H114.739H114.688H114.638H114.588H114.539H114.489H114.441H114.392H114.344H114.296H114.248H114.201H114.154H114.108H114.062H114.016H113.971H113.926H113.881H113.836H113.792H113.749H113.705H113.662H113.62H113.577H113.536H113.494H113.453H113.412H113.371H113.331H113.292H113.252H113.213H113.174H113.136H113.098H113.061H113.023H112.987H112.95H112.914H112.878H112.843H112.808H112.773H112.739H112.705H112.672H112.639H112.606H112.574H112.542H112.51H112.479H112.448H112.418H112.388H112.358H112.329H112.3V54.9933C112.3 54.3103 111.746 53.7566 111.063 53.7566C110.548 53.7566 110.093 54.0746 109.91 54.5453C109.279 56.162 108.341 57.8612 107.083 59.6432ZM112.3 136.111V113.223H112.329H112.358H112.388H112.418H112.448H112.479H112.51H112.542H112.574H112.606H112.639H112.672H112.705H112.739H112.773H112.808H112.843H112.878H112.914H112.95H112.987H113.023H113.061H113.098H113.136H113.174H113.213H113.252H113.292H113.331H113.371H113.412H113.453H113.494H113.536H113.577H113.62H113.662H113.705H113.749H113.792H113.836H113.881H113.926H113.971H114.016H114.062H114.108H114.154H114.201H114.248H114.296H114.344H114.392H114.441H114.489H114.539H114.588H114.638H114.688H114.739H114.79H114.841H114.892H114.944H114.996H115.049H115.102H115.155H115.208H115.262H115.316H115.371H115.426H115.481H115.536H115.592H115.648H115.704H115.761H115.818H115.875H115.933H115.991H116.049H116.108H116.166H116.226H116.285H116.345H116.405H116.465H116.526H116.587H116.648H116.71H116.772H116.834H116.897H116.959H117.022H117.086H117.149H117.213H117.278H117.342H117.407H117.472H117.538H117.603H117.669H117.736H117.802H117.869H117.936H118.004H118.071H118.139H118.207H118.276H118.345H118.414H118.483H118.553H118.623H118.693H118.763H118.834H118.905H118.976H119.048H119.12H119.192H119.264H119.336H119.409H119.482H119.556H119.629H119.703H119.777H119.852H119.926H120.001H120.076H120.152H120.228H120.303H120.38H120.456H120.533H120.61H120.687H120.764H120.842H120.92H120.998H121.076H121.155H121.234H121.313H121.392H121.472H121.551H121.631H121.712H121.792H121.873H121.954H122.035H122.117H122.198H122.28H122.362H122.445H122.527H122.61H122.693H122.776H122.86H122.943H123.027H123.111H123.196H123.28H123.365H123.45H123.535H123.621H123.706H123.792H123.878H123.964H124.051H124.137H124.224H124.311H124.399H124.486H124.574H124.662H124.75H124.838H124.926H125.015H125.104H125.193H125.282H125.372H125.461H125.551H125.641H125.731H125.822H125.912H126.003H126.094H126.185H126.277H126.368H126.46H126.552H126.644H126.736H126.829H126.921H127.014H127.107H127.2H127.293H127.387H127.48H127.574H127.668H127.762H127.857H127.951H128.046H128.141H128.236H128.331H128.426H128.522H128.617H128.713H128.809H128.905H129.001H129.098H129.194H129.291H129.388H129.485H129.582H129.68H129.777H129.875H129.973H130.07H130.169H130.267H130.365H130.464H130.562H130.661H130.76H130.859H130.958H131.058H131.157H131.257H131.357H131.456H131.556H131.657H131.757H131.857H131.958H132.059H132.159H132.26H132.361H132.462H132.564H132.665H132.767H132.868H132.97H133.072H133.174H133.276H133.378H133.481H133.583H133.686H133.789H133.891H133.994H134.097H134.2H134.304H134.407H134.511H134.614H134.718H134.821H134.925H135.029H135.133H135.238H135.342H135.446H135.551H135.655H135.76H135.865H135.969H136.074H136.179H136.284H136.39H136.495H136.6H136.706H136.811H136.917H137.022H137.128H137.234H137.34H137.446H137.552H137.658H137.765H137.871H137.977H138.084H138.1V136.111H112.3ZM112.3 138.111H138.1V152C138.1 156.971 134.071 161 129.1 161H121.3C116.329 161 112.3 156.971 112.3 152V138.111ZM140.1 136.111V113.223H140.119H140.227H140.335H140.443H140.55H140.658H140.766H140.874H140.983H141.091H141.199H141.307H141.415H141.524H141.632H141.74H141.849H141.957H142.066H142.174H142.283H142.392H142.5H142.609H142.718H142.826H142.935H143.044H143.153H143.262H143.371H143.479H143.588H143.697H143.806H143.915H144.024H144.133H144.243H144.352H144.461H144.57H144.679H144.788H144.897H145.007H145.116H145.225H145.334H145.443H145.553H145.662H145.771H145.88H145.99H146.099H146.208H146.317H146.427H146.536H146.645H146.754H146.864H146.973H147.082H147.191H147.301H147.41H147.519H147.628H147.738H147.847H147.956H148.065H148.174H148.283H148.392H148.502H148.611H148.72H148.829H148.938H149.047H149.156H149.265H149.374H149.482H149.591H149.7C154.671 113.223 158.7 117.252 158.7 122.223V127.111C158.7 132.082 154.671 136.111 149.7 136.111H140.1Z" stroke="url(#paint1_linear_24718_1264)" stroke-opacity="0.5" stroke-width="2" stroke-linejoin="round"/>
</g>
<defs>
<filter id="filter0_bddd_24718_1264" x="0.299988" y="-6" width="189.4" height="216" filterUnits="userSpaceOnUse" color-interpolation-filters="sRGB">
<feFlood flood-opacity="0" result="BackgroundImageFix"/>
<feGaussianBlur in="BackgroundImageFix" stdDeviation="15"/>
<feComposite in2="SourceAlpha" operator="in" result="effect1_backgroundBlur_24718_1264"/>
<feColorMatrix in="SourceAlpha" type="matrix" values="0 0 0 0 0 0 0 0 0 0 0 0 0 0 0 0 0 0 127 0" result="hardAlpha"/>
<feOffset dx="-8" dy="12"/>
<feGaussianBlur stdDeviation="18"/>
<feComposite in2="hardAlpha" operator="out"/>
<feColorMatrix type="matrix" values="0 0 0 0 0 0 0 0 0 0 0 0 0 0 0 0 0 0 0.06 0"/>
<feBlend mode="multiply" in2="effect1_backgroundBlur_24718_1264" result="effect2_dropShadow_24718_1264"/>
<feColorMatrix in="SourceAlpha" type="matrix" values="0 0 0 0 0 0 0 0 0 0 0 0 0 0 0 0 0 0 127 0" result="hardAlpha"/>
<feOffset dx="-8" dy="10"/>
<feGaussianBlur stdDeviation="2"/>
<feComposite in2="hardAlpha" operator="out"/>
<feColorMatrix type="matrix" values="0 0 0 0 0 0 0 0 0 0 0 0 0 0 0 0 0 0 0.01 0"/>
<feBlend mode="multiply" in2="effect2_dropShadow_24718_1264" result="effect3_dropShadow_24718_1264"/>
<feColorMatrix in="SourceAlpha" type="matrix" values="0 0 0 0 0 0 0 0 0 0 0 0 0 0 0 0 0 0 127 0" result="hardAlpha"/>
<feOffset dx="-9" dy="10.5"/>
<feGaussianBlur stdDeviation="16"/>
<feComposite in2="hardAlpha" operator="out"/>
<feColorMatrix type="matrix" values="0 0 0 0 0.313726 0 0 0 0 0.345098 0 0 0 0 0.380392 0 0 0 1 0"/>
<feBlend mode="overlay" in2="effect3_dropShadow_24718_1264" result="effect4_dropShadow_24718_1264"/>
<feBlend mode="normal" in="SourceGraphic" in2="effect4_dropShadow_24718_1264" result="shape"/>
</filter>
<linearGradient id="paint0_linear_24718_1264" x1="137.669" y1="160" x2="139.564" y2="33.5284" gradientUnits="userSpaceOnUse">
<stop/>
<stop offset="0.140933" stop-color="#117B36"/>
<stop offset="0.342708" stop-color="#00D15F"/>
<stop offset="0.644791" stop-color="#32F26F"/>
<stop offset="1" stop-color="#9CFFA3"/>
</linearGradient>
<linearGradient id="paint1_linear_24718_1264" x1="39.9635" y1="-0.292134" x2="38.5281" y2="150.158" gradientUnits="userSpaceOnUse">
<stop stop-color="white"/>
<stop offset="1" stop-color="white" stop-opacity="0"/>
</linearGradient>
</defs>
</svg>
