<svg width="auto" height="138" viewBox="0 0 173 210" fill="none" xmlns="http://www.w3.org/2000/svg">
<g id="5" filter="url(#filter0_bddd_24718_1266)">
<mask id="path-1-inside-1_24718_1266" fill="white">
<path d="M94.4 162C84.8 162 76.2667 160.473 68.8 157.42C61.4667 154.367 55.4667 149.853 50.8 143.879C48.3351 140.631 46.363 136.97 44.8835 132.898C42.8136 127.2 47.6007 121.775 53.6629 121.775H63.6878C68.3246 121.775 72.1531 125.171 74.8983 128.907C76.0678 130.5 77.5017 131.972 79.2 133.325C83.2 136.511 88.2 138.104 94.2 138.104C98.4667 138.104 102.333 137.175 105.8 135.316C109.267 133.325 112 130.603 114 127.152C116.133 123.567 117.2 119.452 117.2 114.805C117.2 110.026 116.2 105.977 114.2 102.658C112.333 99.2064 109.733 96.6176 106.4 94.8918C103.2 93.166 99.6667 92.303 95.8 92.303C91.6667 92.303 88.0667 93.0996 85 94.6926C83.1113 95.6738 81.2985 96.9067 79.5616 98.3913C77.4256 100.217 74.7992 101.463 71.9892 101.463H57.6181C51.4341 101.463 46.7325 95.9068 47.756 89.8081L57.3996 32.3449C58.2079 27.5281 62.3775 24 67.2616 24H127.6C133.123 24 137.6 28.4772 137.6 34V39.4892C137.6 45.012 133.123 49.4892 127.6 49.4892H80.5194C80.4944 49.4892 80.4741 49.4689 80.4741 49.4439C80.4741 49.3883 80.3934 49.3816 80.3842 49.4364L75.8523 76.4586C75.825 76.6218 75.9508 76.7706 76.1164 76.7706C76.1708 76.7706 76.2239 76.754 76.2688 76.7231C79.3204 74.6207 82.8975 72.9107 87 71.5931C91.2667 70.1328 97 69.4026 104.2 69.4026C110.867 69.4026 117.333 71.0621 123.6 74.381C129.867 77.6999 134.933 82.6782 138.8 89.316C142.8 95.8211 144.8 103.587 144.8 112.615C144.8 123.633 142.4 132.86 137.6 140.294C132.933 147.729 126.733 153.238 119 156.823C111.4 160.274 103.2 162 94.4 162Z"/>
</mask>
<path d="M94.4 162C84.8 162 76.2667 160.473 68.8 157.42C61.4667 154.367 55.4667 149.853 50.8 143.879C48.3351 140.631 46.363 136.97 44.8835 132.898C42.8136 127.2 47.6007 121.775 53.6629 121.775H63.6878C68.3246 121.775 72.1531 125.171 74.8983 128.907C76.0678 130.5 77.5017 131.972 79.2 133.325C83.2 136.511 88.2 138.104 94.2 138.104C98.4667 138.104 102.333 137.175 105.8 135.316C109.267 133.325 112 130.603 114 127.152C116.133 123.567 117.2 119.452 117.2 114.805C117.2 110.026 116.2 105.977 114.2 102.658C112.333 99.2064 109.733 96.6176 106.4 94.8918C103.2 93.166 99.6667 92.303 95.8 92.303C91.6667 92.303 88.0667 93.0996 85 94.6926C83.1113 95.6738 81.2985 96.9067 79.5616 98.3913C77.4256 100.217 74.7992 101.463 71.9892 101.463H57.6181C51.4341 101.463 46.7325 95.9068 47.756 89.8081L57.3996 32.3449C58.2079 27.5281 62.3775 24 67.2616 24H127.6C133.123 24 137.6 28.4772 137.6 34V39.4892C137.6 45.012 133.123 49.4892 127.6 49.4892H80.5194C80.4944 49.4892 80.4741 49.4689 80.4741 49.4439C80.4741 49.3883 80.3934 49.3816 80.3842 49.4364L75.8523 76.4586C75.825 76.6218 75.9508 76.7706 76.1164 76.7706C76.1708 76.7706 76.2239 76.754 76.2688 76.7231C79.3204 74.6207 82.8975 72.9107 87 71.5931C91.2667 70.1328 97 69.4026 104.2 69.4026C110.867 69.4026 117.333 71.0621 123.6 74.381C129.867 77.6999 134.933 82.6782 138.8 89.316C142.8 95.8211 144.8 103.587 144.8 112.615C144.8 123.633 142.4 132.86 137.6 140.294C132.933 147.729 126.733 153.238 119 156.823C111.4 160.274 103.2 162 94.4 162Z" fill="url(#paint0_linear_24718_1266)"/>
<path d="M68.8 157.42L68.0312 159.266L68.043 159.271L68.8 157.42ZM50.8 143.879L49.2068 145.088C49.2124 145.095 49.2181 145.103 49.2239 145.11L50.8 143.879ZM79.2 133.325L77.9539 134.889L79.2 133.325ZM105.8 135.316L106.745 137.079C106.762 137.069 106.779 137.06 106.796 137.05L105.8 135.316ZM114 127.152L112.281 126.129C112.277 126.135 112.273 126.142 112.27 126.149L114 127.152ZM114.2 102.658L112.441 103.609C112.456 103.637 112.471 103.664 112.487 103.69L114.2 102.658ZM106.4 94.8918L105.451 96.6521C105.461 96.6574 105.47 96.6627 105.48 96.6679L106.4 94.8918ZM85 94.6926L85.922 96.4675L85 94.6926ZM87 71.5931L87.6116 73.4973C87.6237 73.4934 87.6357 73.4894 87.6477 73.4853L87 71.5931ZM123.6 74.381L122.664 76.1484L123.6 74.381ZM138.8 89.316L137.072 90.3227C137.08 90.3365 137.088 90.3501 137.096 90.3636L138.8 89.316ZM137.6 140.294L135.92 139.21C135.915 139.217 135.911 139.224 135.906 139.231L137.6 140.294ZM119 156.823L119.827 158.644C119.832 158.641 119.836 158.639 119.841 158.637L119 156.823ZM76.2688 76.7231L77.4034 78.3701L76.2688 76.7231ZM75.8523 76.4586L77.8248 76.7894L75.8523 76.4586ZM80.3842 49.4364L78.4117 49.1056L80.3842 49.4364ZM74.8983 128.907L73.2865 130.092L74.8983 128.907ZM94.4 160C85.0113 160 76.7424 158.507 69.557 155.569L68.043 159.271C75.791 162.44 84.5888 164 94.4 164V160ZM69.5688 155.574C62.5372 152.646 56.8208 148.337 52.3761 142.648L49.2239 145.11C54.1126 151.368 60.3962 156.087 68.0312 159.266L69.5688 155.574ZM52.3932 142.67C50.0571 139.591 48.1785 136.11 46.7633 132.215L43.0037 133.581C44.5474 137.83 46.6131 141.67 49.2068 145.088L52.3932 142.67ZM53.6629 123.775H63.6878V119.775H53.6629V123.775ZM73.2865 130.092C74.5703 131.839 76.131 133.437 77.9539 134.889L80.4461 131.76C78.8725 130.507 77.5653 129.16 76.5101 127.723L73.2865 130.092ZM77.9539 134.889C82.3671 138.404 87.8292 140.104 94.2 140.104V136.104C88.5709 136.104 84.0329 134.617 80.4461 131.76L77.9539 134.889ZM94.2 140.104C98.7678 140.104 102.964 139.106 106.745 137.079L104.855 133.553C101.703 135.243 98.1656 136.104 94.2 136.104V140.104ZM106.796 137.05C110.567 134.884 113.554 131.911 115.731 128.154L112.27 126.149C110.446 129.296 107.966 131.765 104.804 133.582L106.796 137.05ZM115.719 128.174C118.057 124.246 119.2 119.77 119.2 114.805H115.2C115.2 119.134 114.21 122.888 112.281 126.129L115.719 128.174ZM119.2 114.805C119.2 109.747 118.14 105.321 115.913 101.626L112.487 103.69C114.26 106.632 115.2 110.305 115.2 114.805H119.2ZM115.959 101.707C113.911 97.919 111.026 95.0347 107.32 93.1157L105.48 96.6679C108.441 98.2006 110.756 100.494 112.441 103.609L115.959 101.707ZM107.349 93.1315C103.839 91.2383 99.9764 90.303 95.8 90.303V94.303C99.357 94.303 102.561 95.0936 105.451 96.6521L107.349 93.1315ZM95.8 90.303C91.4083 90.303 87.4802 91.1505 84.078 92.9178L85.922 96.4675C88.6531 95.0487 91.9251 94.303 95.8 94.303V90.303ZM84.078 92.9178C82.0447 93.9741 80.1063 95.2946 78.2621 96.871L80.8611 99.9116C82.4907 98.5187 84.178 97.3734 85.922 96.4675L84.078 92.9178ZM71.9892 99.4632H57.6181V103.463H71.9892V99.4632ZM49.7284 90.1391L59.372 32.6759L55.4271 32.0139L45.7836 89.4771L49.7284 90.1391ZM67.2616 26H127.6V22H67.2616V26ZM135.6 34V39.4892H139.6V34H135.6ZM127.6 47.4892H80.5194V51.4892H127.6V47.4892ZM78.4117 49.1056L73.8799 76.1278L77.8248 76.7894L82.3566 49.7672L78.4117 49.1056ZM77.4034 78.3701C80.2705 76.3949 83.6656 74.7647 87.6116 73.4973L86.3884 69.6889C82.1295 71.0568 78.3703 72.8466 75.1341 75.0761L77.4034 78.3701ZM87.6477 73.4853C91.6194 72.1259 97.1052 71.4026 104.2 71.4026V67.4026C96.8948 67.4026 90.914 68.1396 86.3524 69.7008L87.6477 73.4853ZM104.2 71.4026C110.52 71.4026 116.667 72.9722 122.664 76.1484L124.536 72.6135C118 69.1519 111.214 67.4026 104.2 67.4026V71.4026ZM122.664 76.1484C128.573 79.2781 133.377 83.9795 137.072 90.3227L140.528 88.3093C136.49 81.3769 131.16 76.1216 124.536 72.6135L122.664 76.1484ZM137.096 90.3636C140.87 96.5002 142.8 103.889 142.8 112.615H146.8C146.8 103.286 144.73 95.1419 140.504 88.2684L137.096 90.3636ZM142.8 112.615C142.8 123.343 140.465 132.17 135.92 139.21L139.28 141.379C144.335 133.551 146.8 123.924 146.8 112.615H142.8ZM135.906 139.231C131.439 146.348 125.53 151.591 118.159 155.008L119.841 158.637C127.936 154.885 134.428 149.109 139.294 141.358L135.906 139.231ZM118.173 155.002C110.847 158.329 102.931 160 94.4 160V164C103.47 164 111.953 162.219 119.827 158.644L118.173 155.002ZM76.1164 78.7706C76.5778 78.7706 77.0262 78.6299 77.4034 78.3701L75.1341 75.0761C75.4215 74.8781 75.7639 74.7706 76.1164 74.7706V78.7706ZM73.8799 76.1278C73.648 77.5107 74.7141 78.7706 76.1164 78.7706V74.7706C77.1875 74.7706 78.002 75.733 77.8248 76.7894L73.8799 76.1278ZM82.4741 49.4439C82.4741 46.9345 78.8268 46.6308 78.4117 49.1056L82.3566 49.7672C81.96 52.1324 78.4741 51.8422 78.4741 49.4439H82.4741ZM80.5194 47.4892C81.599 47.4892 82.4741 48.3643 82.4741 49.4439H78.4741C78.4741 50.5735 79.3898 51.4892 80.5194 51.4892V47.4892ZM135.6 39.4892C135.6 43.9075 132.018 47.4892 127.6 47.4892V51.4892C134.227 51.4892 139.6 46.1166 139.6 39.4892H135.6ZM127.6 26C132.018 26 135.6 29.5817 135.6 34H139.6C139.6 27.3726 134.227 22 127.6 22V26ZM59.372 32.6759C60.0187 28.8225 63.3543 26 67.2616 26V22C61.4007 22 56.3972 26.2338 55.4271 32.0139L59.372 32.6759ZM63.6878 123.775C67.3242 123.775 70.6322 126.478 73.2865 130.092L76.5101 127.723C73.6741 123.863 69.3251 119.775 63.6878 119.775V123.775ZM57.6181 99.4632C52.6709 99.4632 48.9096 95.0181 49.7284 90.1391L45.7836 89.4771C44.5554 96.7955 50.1974 103.463 57.6181 103.463V99.4632ZM78.2621 96.871C76.3806 98.4792 74.1979 99.4632 71.9892 99.4632V103.463C75.4004 103.463 78.4706 101.955 80.8611 99.9116L78.2621 96.871ZM46.7633 132.215C45.2838 128.142 48.6283 123.775 53.6629 123.775V119.775C46.5731 119.775 40.3434 126.258 43.0037 133.581L46.7633 132.215Z" fill="url(#paint1_linear_24718_1266)" fill-opacity="0.5" mask="url(#path-1-inside-1_24718_1266)"/>
</g>
<defs>
<filter id="filter0_bddd_24718_1266" x="0.393677" y="-6" width="174.406" height="216" filterUnits="userSpaceOnUse" color-interpolation-filters="sRGB">
<feFlood flood-opacity="0" result="BackgroundImageFix"/>
<feGaussianBlur in="BackgroundImageFix" stdDeviation="15"/>
<feComposite in2="SourceAlpha" operator="in" result="effect1_backgroundBlur_24718_1266"/>
<feColorMatrix in="SourceAlpha" type="matrix" values="0 0 0 0 0 0 0 0 0 0 0 0 0 0 0 0 0 0 127 0" result="hardAlpha"/>
<feOffset dx="-8" dy="12"/>
<feGaussianBlur stdDeviation="18"/>
<feComposite in2="hardAlpha" operator="out"/>
<feColorMatrix type="matrix" values="0 0 0 0 0 0 0 0 0 0 0 0 0 0 0 0 0 0 0.06 0"/>
<feBlend mode="multiply" in2="effect1_backgroundBlur_24718_1266" result="effect2_dropShadow_24718_1266"/>
<feColorMatrix in="SourceAlpha" type="matrix" values="0 0 0 0 0 0 0 0 0 0 0 0 0 0 0 0 0 0 127 0" result="hardAlpha"/>
<feOffset dx="-8" dy="10"/>
<feGaussianBlur stdDeviation="2"/>
<feComposite in2="hardAlpha" operator="out"/>
<feColorMatrix type="matrix" values="0 0 0 0 0 0 0 0 0 0 0 0 0 0 0 0 0 0 0.01 0"/>
<feBlend mode="multiply" in2="effect2_dropShadow_24718_1266" result="effect3_dropShadow_24718_1266"/>
<feColorMatrix in="SourceAlpha" type="matrix" values="0 0 0 0 0 0 0 0 0 0 0 0 0 0 0 0 0 0 127 0" result="hardAlpha"/>
<feOffset dx="-9" dy="10.5"/>
<feGaussianBlur stdDeviation="16"/>
<feComposite in2="hardAlpha" operator="out"/>
<feColorMatrix type="matrix" values="0 0 0 0 0.313726 0 0 0 0 0.345098 0 0 0 0 0.380392 0 0 0 1 0"/>
<feBlend mode="overlay" in2="effect3_dropShadow_24718_1266" result="effect4_dropShadow_24718_1266"/>
<feBlend mode="normal" in="SourceGraphic" in2="effect4_dropShadow_24718_1266" result="shape"/>
</filter>
<linearGradient id="paint0_linear_24718_1266" x1="125.213" y1="160" x2="127.344" y2="33.5359" gradientUnits="userSpaceOnUse">
<stop/>
<stop offset="0.140933" stop-color="#117B36"/>
<stop offset="0.342708" stop-color="#00D15F"/>
<stop offset="0.644791" stop-color="#32F26F"/>
<stop offset="1" stop-color="#9CFFA3"/>
</linearGradient>
<linearGradient id="paint1_linear_24718_1266" x1="38.3445" y1="-0.292134" x2="36.7301" y2="150.154" gradientUnits="userSpaceOnUse">
<stop stop-color="white"/>
<stop offset="1" stop-color="white" stop-opacity="0"/>
</linearGradient>
</defs>
</svg>
